<?xml version="1.0" encoding="UTF-8"?>
<!DOCTYPE svg PUBLIC "-//W3C//DTD SVG 1.1//EN" "http://www.w3.org/Graphics/SVG/1.1/DTD/svg11.dtd">
<svg version="1.1" xmlns="http://www.w3.org/2000/svg" xmlns:xlink="http://www.w3.org/1999/xlink" x="0" y="0" width="96" height="96" viewBox="0, 0, 96, 96">
  <g id="Layer_1">
    <path d="M6,16 C8.209,16 10,17.791 10,20 L10,35.431 L25.715,19.715 L25.716,19.716 C32.954,12.477 42.954,8 54,8 C76.091,8 94,25.909 94,48 C94,70.092 76.091,88 54,88 C34.648,88 18.508,74.258 14.802,56 L23.008,56 C26.561,69.802 39.09,80 54,80 C71.673,80 86,65.673 86,48 C86,30.327 71.673,16 54,16 C45.159,16 37.155,19.585 31.364,25.382 L16.745,40 L30,40 C32.209,40 34,41.791 34,44 C34,46.209 32.209,48 30,48 L8.745,48 L6,48 C3.791,48 2,46.209 2,44 L2,20 C2,17.791 3.791,16 6,16 z" fill="#000000"/>
  </g>
</svg>
